<svg id="Layer_1" enable-background="new 0 0 511.864 511.864" height="512" viewBox="0 0 511.864 511.864" width="512" xmlns="http://www.w3.org/2000/svg"><g id="XMLID_1585_"><path id="XMLID_2222_" d="m77.177 447.593-45.407-95.234c-70.218-147.271 37.154-317.419 200.308-317.419 85.48 0 163.36 49.096 200.22 126.22l50.514 105.693c19.295 40.371 24.134 86.145 13.709 129.658l-9.803 40.917c-5.549 23.161-26.258 39.495-50.075 39.495h-312.987c-19.851.001-37.935-11.411-46.479-29.33z" fill="#ff7b79"/><path id="XMLID_2221_" d="m494.507 404.923-7.788 32.506c-5.549 23.161-26.258 39.495-50.075 39.495h-312.988c-19.852 0-37.935-11.412-46.479-29.331l-20.345-42.669z" fill="#8aa8bd"/><path id="XMLID_2219_" d="m436.727 180.561h-227.332l-16.025-20.274c-14.297-17.795-40.313-20.631-58.108-6.334-8.579 6.892-13.67 16.51-15.051 26.616-1.484 10.856 1.313 22.276 8.717 31.492l70.734 88.977c12.671 15.939 31.921 25.228 52.284 25.228h245.324l-10.709-51.07z" fill="#dfedff"/><path id="XMLID_2218_" d="m323.561 324.997-114.166-144.436-16.025-20.274c-14.297-17.795-40.313-20.631-58.108-6.334-8.579 6.892-13.67 16.51-15.051 26.616-1.484 10.856 1.313 22.276 8.717 31.492l70.734 88.977c12.671 15.939 31.921 25.228 52.284 25.228h72.617z" fill="#a0c8ff"/><g id="XMLID_441_"><path id="XMLID_457_" d="m491.835 262.541-50.514-105.693c-18.9-39.546-48.489-72.805-85.567-96.179-37.079-23.374-79.845-35.729-123.676-35.729-80.074 0-153.392 40.429-196.125 108.146-42.734 67.717-47.672 151.297-13.21 223.576l45.407 95.234c10.146 21.278 31.933 35.027 55.506 35.027h312.987c28.557 0 53.147-19.395 59.8-47.165l9.804-40.917c10.924-45.594 5.805-94-14.412-136.3zm-18.045 8.624c6.879 14.394 11.819 29.571 14.779 45.1h-57.432l-53.683-53.683c-3.905-3.905-10.235-3.905-14.143 0-3.905 3.905-3.905 10.237 0 14.142l39.541 39.541h-73.446l-99.361-125.704h47.103l47.631 47.631c1.953 1.953 4.512 2.929 7.071 2.929s5.118-.977 7.071-2.929c3.905-3.905 3.905-10.237 0-14.142l-33.489-33.49h129.834zm-169.876 45.1h-51.969c-17.415 0-33.618-7.818-44.455-21.451l-70.767-89.017c-5.438-6.77-7.784-15.248-6.604-23.874 1.09-7.977 5.142-15.142 11.405-20.175 13.469-10.82 33.23-8.666 44.001 4.74zm182.884 77.916-.178.742h-165.841c-5.522 0-10 4.477-10 10s4.478 10 10 10h161.049l-4.834 20.175c-4.489 18.738-21.082 31.825-40.351 31.825h-312.987c-15.906 0-30.607-9.277-37.453-23.635l-13.524-28.365h158.101c5.522 0 10-4.477 10-10s-4.478-10-10-10h-167.637l-22.347-46.869c-31.49-66.045-26.978-142.417 12.07-204.295 39.049-61.877 106.044-98.819 179.212-98.819 81.153 0 156.203 47.312 191.198 120.532l2.432 5.089h-211.472l-13.071-16.537c-17.729-22.065-50.103-25.593-72.168-7.867-10.269 8.251-16.908 19.991-18.695 33.057-1.931 14.125 1.915 28.014 10.797 39.07l70.734 88.976c14.653 18.434 36.563 29.005 60.111 29.005h239.32c1.549 19.318.093 38.888-4.466 57.916z"/><path id="XMLID_474_" d="m429.655 276.725c1.953 1.952 4.512 2.929 7.071 2.929s5.118-.977 7.071-2.929c3.905-3.905 3.905-10.237 0-14.143l-47.104-47.104c-3.906-3.904-10.236-3.904-14.143 0-3.905 3.905-3.905 10.237 0 14.143z"/><path id="XMLID_475_" d="m161.145 176.172c-2.63 0-5.2 1.07-7.07 2.93-1.86 1.86-2.93 4.44-2.93 7.07 0 2.64 1.069 5.21 2.93 7.07 1.87 1.86 4.44 2.93 7.07 2.93 2.64 0 5.21-1.07 7.069-2.93 1.87-1.86 2.94-4.44 2.94-7.07s-1.07-5.21-2.94-7.07c-1.859-1.86-4.43-2.93-7.069-2.93z"/><path id="XMLID_476_" d="m219.714 269.071c2.631 0 5.211-1.07 7.07-2.93 1.86-1.86 2.93-4.44 2.93-7.07s-1.069-5.21-2.93-7.07c-1.859-1.86-4.439-2.93-7.07-2.93-2.63 0-5.21 1.07-7.069 2.93-1.86 1.86-2.931 4.44-2.931 7.07 0 2.64 1.07 5.21 2.931 7.07 1.859 1.861 4.439 2.93 7.069 2.93z"/><path id="XMLID_477_" d="m275.775 394.812c-2.63 0-5.21 1.07-7.07 2.93-1.859 1.86-2.93 4.44-2.93 7.07 0 2.64 1.07 5.21 2.93 7.07s4.44 2.93 7.07 2.93c2.64 0 5.22-1.07 7.07-2.93 1.859-1.86 2.93-4.43 2.93-7.07 0-2.63-1.07-5.21-2.93-7.07-1.851-1.86-4.431-2.93-7.07-2.93z"/></g></g></svg>