<svg id="Capa_1" enable-background="new 0 0 490 490" height="512" viewBox="0 0 490 490" width="512" xmlns="http://www.w3.org/2000/svg"><g><circle cx="245" cy="245" fill="#2b3538" r="245"/><circle cx="245" cy="245" fill="#3b494d" r="228.744"/><path d="m429.264 245c.001-101.602-82.66-184.265-184.264-184.264v-20c112.632 0 204.264 91.634 204.264 204.264z" fill="#e7c837"/><path d="m100.631 389.368c-36.987-36.987-59.896-88.053-59.896-144.368h20.001c0 101.604 82.662 184.265 184.264 184.264v20.001c-56.316-.001-107.382-22.909-144.369-59.897z" fill="#e7c837"/><circle cx="245" cy="245" fill="#232c31" r="127.534"/><circle cx="245" cy="245" fill="#2b3538" r="164.057"/><circle cx="245" cy="245" fill="#232c31" r="126.017"/><path d="m347.023 244.999c0 6.32-.58 12.51-1.68 18.52-.98 5.36-2.38 10.58-4.18 15.61-4.2 11.85-10.53 22.7-18.54 32.07-3.5 4.1-7.32 7.93-11.42 11.42-9.38 8.01-20.22 14.35-32.08 18.55-5.03 1.79-10.24 3.19-15.6 4.17-6.01 1.1-12.2 1.68-18.52 1.68-6.33 0-12.52-.58-18.53-1.68-5.36-.98-10.57-2.38-15.6-4.18-11.85-4.19-22.69-10.53-32.07-18.54-4.11-3.49-7.93-7.31-11.43-11.42-8.01-9.37-14.34-20.21-18.54-32.06-1.79-5.03-3.2-10.25-4.18-15.62-1.1-6.01-1.68-12.2-1.68-18.52s.58-12.51 1.68-18.52c.98-5.37 2.39-10.59 4.18-15.62 4.2-11.85 10.53-22.69 18.54-32.06 3.5-4.11 7.32-7.93 11.43-11.42 9.38-8.01 20.22-14.35 32.07-18.54 5.03-1.8 10.24-3.2 15.6-4.18 6.01-1.1 12.2-1.68 18.53-1.68 6.32 0 12.51.58 18.52 1.68 5.36.98 10.57 2.38 15.6 4.17 11.86 4.2 22.7 10.54 32.08 18.55 4.1 3.49 7.92 7.32 11.42 11.42 8.01 9.37 14.34 20.22 18.54 32.07 1.8 5.03 3.2 10.25 4.18 15.61 1.1 6.01 1.68 12.2 1.68 18.52z" fill="#232c31"/><g fill="#fff"><path d="m259.476 244.999c0 .897-.082 1.775-.238 2.628-.139.761-.338 1.501-.593 2.215-.596 1.682-1.494 3.221-2.631 4.551-.497.582-1.039 1.125-1.621 1.621-1.331 1.137-2.869 2.036-4.552 2.632-.714.254-1.453.453-2.214.592-.853.156-1.731.238-2.628.238-.898 0-1.777-.082-2.629-.238-.761-.139-1.5-.338-2.214-.593-1.682-.595-3.22-1.494-4.551-2.631-.583-.495-1.125-1.037-1.622-1.621-1.137-1.33-2.035-2.868-2.631-4.549-.254-.714-.454-1.455-.593-2.217-.156-.853-.238-1.731-.238-2.628s.082-1.775.238-2.628c.139-.762.339-1.503.593-2.217.596-1.682 1.494-3.22 2.631-4.549.497-.583 1.039-1.125 1.622-1.621 1.331-1.137 2.869-2.036 4.551-2.631.714-.255 1.453-.454 2.214-.593.853-.156 1.731-.238 2.629-.238.897 0 1.775.082 2.628.238.761.139 1.5.338 2.214.592 1.683.596 3.221 1.496 4.552 2.632.582.495 1.124 1.039 1.621 1.621 1.137 1.33 2.035 2.869 2.631 4.551.255.714.454 1.455.593 2.215.156.853.238 1.731.238 2.628z"/><g><path d="m263.523 345.339c-6.01 1.1-12.2 1.68-18.52 1.68-6.33 0-12.52-.58-18.53-1.68l9.09-54.15c1.79-10.64 17.08-10.64 18.87 0z"/><path d="m263.523 144.659-9.09 54.15c-1.79 10.64-17.08 10.64-18.87 0l-9.09-54.15c6.01-1.1 12.2-1.68 18.53-1.68 6.32 0 12.51.58 18.52 1.68z"/></g><g><path d="m311.203 322.619c-9.38 8.01-20.22 14.35-32.08 18.55l-19.2-51.45c-3.77-10.11 9.47-17.75 16.34-9.43z"/><path d="m213.733 209.709-34.93-42.33c9.38-8.01 20.22-14.35 32.07-18.54l19.2 51.44c3.77 10.11-9.47 17.76-16.34 9.43z"/></g><g><path d="m341.163 279.129c-4.2 11.85-10.53 22.7-18.54 32.07l-42.34-34.93c-8.32-6.87-.67-20.12 9.44-16.34z"/><path d="m200.283 230.069-51.45-19.21c4.2-11.85 10.53-22.69 18.54-32.06l42.34 34.94c8.32 6.86.68 20.11-9.43 16.33z"/></g><g><path d="m347.023 244.999c0 6.32-.58 12.51-1.68 18.52l-54.15-9.09c-10.64-1.78-10.64-17.08 0-18.86l54.15-9.09c1.1 6.01 1.68 12.2 1.68 18.52z"/><path d="m198.803 254.429-54.15 9.09c-1.1-6.01-1.68-12.2-1.68-18.52s.58-12.51 1.68-18.52l54.15 9.09c10.65 1.78 10.65 17.08 0 18.86z"/></g><g><path d="m341.163 210.869-51.44 19.2c-10.11 3.78-17.76-9.47-9.44-16.33l42.34-34.94c8.01 9.37 14.34 20.22 18.54 32.07z"/><path d="m209.713 276.269-42.34 34.93c-8.01-9.37-14.34-20.21-18.54-32.06l51.45-19.21c10.11-3.78 17.75 9.47 9.43 16.34z"/></g><g><path d="m311.203 167.379-34.94 42.33c-6.87 8.33-20.11.68-16.34-9.43l19.2-51.45c11.86 4.2 22.7 10.54 32.08 18.55z"/><path d="m230.073 289.719-19.2 51.44c-11.85-4.19-22.69-10.53-32.07-18.54l34.93-42.33c6.87-8.32 20.11-.68 16.34 9.43z"/></g></g></g></svg>